<?xml version="1.0" standalone="no"?>
<!DOCTYPE svg PUBLIC "-//W3C//DTD SVG 20010904//EN"
 "http://www.w3.org/TR/2001/REC-SVG-20010904/DTD/svg10.dtd">
<svg version="1.0" xmlns="http://www.w3.org/2000/svg"
 width="68.000000pt" height="64.000000pt" viewBox="0 0 68.000000 64.000000"
 preserveAspectRatio="xMidYMid meet">
<metadata>
Created by potrace 1.14, written by Peter Selinger 2001-2017
</metadata>
<g transform="translate(0.000000,64.000000) scale(0.100000,-0.100000)"
fill="#000000" stroke="none">
<path d="M420 579 c0 -58 21 -105 51 -114 32 -11 34 1 5 39 -33 44 -33 56 0
25 37 -34 72 -107 80 -166 19 -149 -113 -303 -261 -303 -97 0 -193 66 -235
163 -28 63 -29 163 -2 218 25 51 8 39 -21 -14 -31 -60 -32 -204 0 -262 113
-210 410 -211 513 -1 30 59 32 71 28 143 -2 47 -10 91 -21 112 -9 19 -17 53
-17 75 0 50 -2 52 -67 99 l-53 37 0 -51z"/>
</g>
</svg>
